<?xml version="1.0" standalone="no"?>
<!DOCTYPE svg PUBLIC "-//W3C//DTD SVG 20010904//EN"
 "http://www.w3.org/TR/2001/REC-SVG-20010904/DTD/svg10.dtd">
<svg version="1.0" xmlns="http://www.w3.org/2000/svg"
 width="163.000000pt" height="163.000000pt" viewBox="0 0 163.000000 163.000000"
 preserveAspectRatio="xMidYMid meet">
<metadata>
Created by potrace 1.14, written by Peter Selinger 2001-2017
</metadata>
<g transform="translate(0.000000,163.000000) scale(0.100000,-0.100000)"
fill="#000000" stroke="none">
<path d="M80 1410 l0 -130 730 0 730 0 0 130 0 130 -730 0 -730 0 0 -130z"/>
<path d="M80 1010 l0 -130 200 0 200 0 0 -70 0 -70 -200 0 -200 0 2 -332 c2
-183 6 -332 11 -330 4 1 331 2 727 2 l720 0 0 530 0 530 -130 0 -130 0 0 -400
0 -400 -70 0 -70 0 0 400 0 400 -130 0 -130 0 0 -400 0 -400 -70 0 -70 0 0
400 0 400 -330 0 -330 0 0 -130z m400 -600 l0 -70 -70 0 -70 0 0 70 0 70 70 0
70 0 0 -70z"/>
</g>
</svg>
